{"title":"Das Leben ist eine Baustelle - Life is All You Get","uid":10502840,"size":733022015,"categoryP":"video","categoryS":"movies","magnet":"?xt=urn:btih:0aea68f0fd2100efae0c023b78e9b78a8b5cce7e&amp;dn=Das+Leben+ist+eine+Baustelle+-+Life+is+All+You+Get&amp;tr=udp%3A%2F%2Ftracker.openbittorrent.com%3A80&amp;tr=udp%3A%2F%2Fopen.demonii.com%3A1337&amp;tr=udp%3A%2F%2Ftracker.coppersurfer.tk%3A6969&amp;tr=udp%3A%2F%2Fexodus.desync.com%3A6969","seeders":5,"leechers":0,"uploader":"Zingurratti","files":2,"time":1404724083,"description":"IMDB Description: \n\nAfter he loses his job, his father, and his girlfriend, Jan's life is a shambles. Then suddenly he meets freakish street musician Vera, and a bittersweet romance unfolds...\n\n-------------------------------------------------------------------------------\n\n\nMediaInfo:\n\nVideo\nID                                       : 0\nFormat                                   : MPEG-4 Visual\nFormat profile                           : Simple@L3\nFormat settings, BVOP                    : 2\nFormat settings, QPel                    : No\nFormat settings, GMC                     : No warppoints\nFormat settings, Matrix                  : Default (H.263)\nMuxing mode                              : Packed bitstream\nCodec ID                                 : XVID\nCodec ID/Hint                            : XviD\nDuration                                 : 1h 51mn\nBit rate                                 : 735 Kbps\nWidth                                    : 576 pixels\nHeight                                   : 304 pixels\nDisplay aspect ratio                     : 1.895\nFrame rate                               : 25.000 fps\nColor space                              : YUV\nChroma subsampling                       : 4:2:0\nBit depth                                : 8 bits\nScan type                                : Progressive\nCompression mode                         : Lossy\nBits/(Pixel*Frame)                       : 0.168\nStream size                              : 585 MiB (84%)\nWriting library                          : XviD 1.0.2 (UTC 2004-08-29)\n\nAudio\nID                                       : 1\nFormat                                   : MPEG Audio\nFormat version                           : Version 1\nFormat profile                           : Layer 3\nMode                                     : Joint stereo\nMode extension                           : MS Stereo\nCodec ID                                 : 55\nCodec ID/Hint                            : MP3\nDuration                                 : 1h 51mn\nBit rate mode                            : Variable\nBit rate                                 : 128 Kbps\nChannel(s)                               : 2 channels\nSampling rate                            : 48.0 KHz\nCompression mode                         : Lossy\nStream size                              : 104 MiB (15%)\nAlignment                                : Aligned on interleaves\nInterleave, duration                     : 24 ms (0.60 video frame)\nInterleave, preload duration             : 321 ms\nWriting library                          : LAME3.90.\nEncoding settings                        : -m j -V 4 -q 2 -lowpass 17.6 --abr 128\n\n-------------------------------------------------------------------------------\n\n\nEnjoy!","torrent":{"xt":"urn:btih:0aea68f0fd2100efae0c023b78e9b78a8b5cce7e","amp;dn":"Das+Leben+ist+eine+Baustelle+-+Life+is+All+You+Get","amp;tr":["udp%3A%2F%2Ftracker.openbittorrent.com%3A80","udp%3A%2F%2Fopen.demonii.com%3A1337","udp%3A%2F%2Ftracker.coppersurfer.tk%3A6969","udp%3A%2F%2Fexodus.desync.com%3A6969"],"infoHash":"0aea68f0fd2100efae0c023b78e9b78a8b5cce7e","infoHashBuffer":{"type":"Buffer","data":[10,234,104,240,253,33,0,239,174,12,2,59,120,233,183,138,139,92,206,126]},"announce":[],"urlList":[]}}